<?xml version="1.0" encoding="iso-8859-1"?>
<!-- Generator: Adobe Illustrator 19.0.0, SVG Export Plug-In . SVG Version: 6.00 Build 0)  -->
<svg version="1.1" id="Layer_1" xmlns="http://www.w3.org/2000/svg" xmlns:xlink="http://www.w3.org/1999/xlink" x="0px" y="0px"
	 viewBox="0 0 512 512" style="enable-background:new 0 0 512 512;" xml:space="preserve">
<path style="fill:#FFDB6F;" d="M488.395,307.637v62.023c0,4.037-3.281,7.306-7.306,7.306H30.911c-4.025,0-7.306-3.269-7.306-7.306
	v-62.023H488.395z M268.381,345.299c0.236-0.968,0.354-1.971,0.354-2.998c0-7.034-5.701-12.735-12.735-12.735
	c-6.432,0-11.755,4.768-12.617,10.976c-0.236,0.968-0.354,1.971-0.354,2.998c0,7.034,5.701,12.735,12.735,12.735
	C262.196,356.276,267.519,351.507,268.381,345.299z"/>
<path style="fill:#F27258;" d="M488.395,58.848v225.183H23.605V58.848c0-4.025,3.281-7.306,7.306-7.306h450.178
	C485.114,51.542,488.395,54.823,488.395,58.848z M403.274,184.582c7.707-9.891,7.707-23.7,0-33.59
	c-3.612-4.627-10.28-5.453-14.907-1.853c-0.543,0.425-1.027,0.885-1.452,1.381l-7.778-8.285c0.519-0.401,1.003-0.85,1.452-1.357
	c3.895-4.391,3.482-11.106-0.909-14.989c-1.747-1.558-3.564-3.104-5.406-4.615C341.05,94.032,299.044,79.031,256,79.031
	c-57.928,0-111.606,26.226-147.274,71.961c-7.707,9.891-7.707,23.7,0,33.59c35.668,45.735,89.346,71.961,147.274,71.961
	S367.606,230.317,403.274,184.582z"/>
<g>
	<path style="fill:#E4F5F4;" d="M379.137,142.234l7.778,8.285c-3.305,3.753-3.588,9.454-0.401,13.538
		c1.723,2.195,1.723,5.264,0,7.459c-15.78,20.242-35.561,36.175-57.786,47.057c10.079-14.399,16.028-31.914,16.028-50.787
		c0-18.79-5.89-36.222-15.886-50.574c11.342,5.547,22.083,12.416,31.938,20.489c1.629,1.334,3.234,2.715,4.792,4.084
		C369.483,145.232,375.183,145.303,379.137,142.234z"/>
	<path style="fill:#E4F5F4;" d="M316.076,460.458H195.924c8.038-10.339,12.853-23.31,12.853-37.391v-22.496h94.445v22.496
		C303.223,437.147,308.038,450.119,316.076,460.458z"/>
</g>
<path style="fill:#31CCC9;" d="M256,100.276c37.226,0,67.511,30.286,67.511,67.511S293.226,235.298,256,235.298
	s-67.511-30.286-67.511-67.511S218.774,100.276,256,100.276z M291.432,167.787c0-19.533-15.898-35.432-35.432-35.432
	s-35.432,15.898-35.432,35.432s15.898,35.432,35.432,35.432S291.432,187.32,291.432,167.787z"/>
<path style="fill:#E4F5F4;" d="M256,153.6c7.825,0,14.187,6.362,14.187,14.187s-6.362,14.187-14.187,14.187
	c-7.825,0-14.187-6.362-14.187-14.187C241.813,159.962,248.175,153.6,256,153.6z"/>
<g>
	<path style="fill:#201F2E;" d="M481.089,27.937H30.911C13.868,27.937,0,41.805,0,58.848v236.986v73.826
		c0,17.043,13.868,30.911,30.911,30.911h154.261v22.496c0,20.619-16.772,37.391-37.391,37.391h-34.003
		c-6.515,0-11.803,5.276-11.803,11.803c0,6.515,5.288,11.803,11.803,11.803h284.444c6.515,0,11.803-5.288,11.803-11.803
		c0-6.527-5.288-11.803-11.803-11.803h-34.004c-20.619,0-37.391-16.772-37.391-37.391v-22.496h154.261
		c17.043,0,30.911-13.868,30.911-30.911v-73.826V58.848C512,41.805,498.132,27.937,481.089,27.937z M488.395,369.66
		c0,4.037-3.281,7.306-7.306,7.306H30.911c-4.025,0-7.306-3.269-7.306-7.306v-62.023h464.789V369.66z M195.924,460.458
		c8.038-10.339,12.853-23.31,12.853-37.391v-22.496h94.445v22.496c0,14.081,4.815,27.052,12.853,37.391H195.924z M23.605,58.848
		c0-4.025,3.281-7.306,7.306-7.306h450.178c4.025,0,7.306,3.281,7.306,7.306v225.183H23.605V58.848z"/>
	<path style="fill:#201F2E;" d="M388.367,149.139c-0.543,0.425-1.027,0.885-1.452,1.381c-3.305,3.753-3.588,9.454-0.401,13.538
		c1.723,2.195,1.723,5.264,0,7.459c-15.78,20.242-35.561,36.175-57.786,47.057c10.079-14.399,16.028-31.914,16.028-50.787
		c0-18.79-5.89-36.222-15.886-50.574c11.342,5.547,22.083,12.416,31.938,20.489c1.629,1.334,3.234,2.715,4.792,4.084
		c3.883,3.446,9.584,3.517,13.538,0.449c0.519-0.401,1.003-0.85,1.452-1.357c3.895-4.391,3.482-11.106-0.909-14.989
		c-1.747-1.558-3.564-3.104-5.406-4.615C341.05,94.032,299.044,79.031,256,79.031c-57.928,0-111.606,26.226-147.274,71.961
		c-7.707,9.891-7.707,23.7,0,33.59c35.668,45.735,89.346,71.961,147.274,71.961s111.606-26.226,147.274-71.961
		c7.707-9.891,7.707-23.7,0-33.59C399.662,146.365,392.994,145.539,388.367,149.139z M125.486,164.057
		c15.78-20.253,35.561-36.175,57.786-47.057c-10.079,14.399-16.028,31.914-16.028,50.787s5.949,36.388,16.028,50.787
		c-22.224-10.882-42.006-26.816-57.786-47.057C123.763,169.321,123.763,166.252,125.486,164.057z M188.489,167.787
		c0-37.226,30.286-67.511,67.511-67.511s67.511,30.286,67.511,67.511S293.226,235.298,256,235.298S188.489,205.012,188.489,167.787z
		"/>
	<path style="fill:#201F2E;" d="M291.432,167.787c0-19.533-15.898-35.432-35.432-35.432s-35.432,15.898-35.432,35.432
		s15.898,35.432,35.432,35.432S291.432,187.32,291.432,167.787z M241.813,167.787c0-7.825,6.362-14.187,14.187-14.187
		c7.825,0,14.187,6.362,14.187,14.187s-6.362,14.187-14.187,14.187C248.175,181.974,241.813,175.612,241.813,167.787z"/>
	<path style="fill:#201F2E;" d="M256,355.036c6.008,0,11.036-4.155,12.381-9.737c0.236-0.968,0.354-1.971,0.354-2.998
		c0-7.034-5.701-12.735-12.735-12.735c-6.432,0-11.755,4.768-12.617,10.976c-0.071,0.567-0.118,1.157-0.118,1.759
		C243.265,349.336,248.966,355.036,256,355.036z"/>
</g>
<path style="fill:#E4F5F4;" d="M183.272,117c-10.079,14.399-16.028,31.914-16.028,50.787s5.949,36.388,16.028,50.787
	c-22.224-10.882-42.006-26.816-57.786-47.057c-1.723-2.195-1.723-5.264,0-7.459C141.266,143.804,161.047,127.882,183.272,117z"/>
<g>
</g>
<g>
</g>
<g>
</g>
<g>
</g>
<g>
</g>
<g>
</g>
<g>
</g>
<g>
</g>
<g>
</g>
<g>
</g>
<g>
</g>
<g>
</g>
<g>
</g>
<g>
</g>
<g>
</g>
</svg>
